<?xml version="1.0" standalone="no"?>
<!DOCTYPE svg PUBLIC "-//W3C//DTD SVG 20010904//EN"
 "http://www.w3.org/TR/2001/REC-SVG-20010904/DTD/svg10.dtd">
<svg version="1.0" xmlns="http://www.w3.org/2000/svg"
 width="512.000000pt" height="512.000000pt" viewBox="0 0 512.000000 512.000000"
 preserveAspectRatio="xMidYMid meet">
<metadata>
Created by potrace 1.11, written by Peter Selinger 2001-2013
</metadata>
<g transform="translate(0.000000,512.000000) scale(0.100000,-0.100000)"
fill="#000000" stroke="none">
<path d="M895 4350 c-136 -6 -163 -16 -217 -80 -47 -55 -61 -104 -53 -198 4
-42 8 -88 10 -102 2 -14 7 -52 10 -85 3 -33 8 -85 11 -115 3 -30 7 -71 9 -90
2 -19 7 -66 11 -105 3 -38 7 -81 9 -95 1 -14 5 -56 9 -95 4 -38 8 -86 11 -105
3 -31 12 -118 20 -205 2 -16 6 -66 10 -110 8 -104 10 -112 36 -198 80 -252
309 -432 589 -461 25 -3 46 -5 47 -5 2 -1 3 -128 2 -283 -1 -199 -4 -287 -12
-297 -9 -11 -9 -13 0 -8 9 6 12 -88 12 -403 1 -276 5 -426 12 -458 38 -152
161 -278 320 -325 64 -20 227 -19 292 0 157 46 269 156 317 309 17 57 19 96
20 435 0 393 3 421 48 497 27 47 118 126 133 116 5 -3 9 -1 9 4 0 15 103 35
151 29 96 -12 155 -40 212 -102 29 -31 64 -92 75 -129 3 -11 7 -192 8 -401 2
-244 8 -398 15 -430 34 -146 149 -270 298 -320 56 -19 84 -22 181 -20 121 2
167 14 246 60 99 58 169 148 204 262 19 62 20 99 19 1191 l0 1127 103 95 c176
163 342 335 385 399 73 109 100 223 78 334 -30 160 -146 282 -305 323 -115 29
-240 4 -341 -68 -13 -9 -26 -5 -65 18 -163 99 -379 72 -506 -64 -85 -91 -125
-199 -114 -312 13 -147 74 -244 270 -437 78 -76 177 -171 221 -211 l80 -72 0
-1128 0 -1127 -23 -46 c-30 -62 -69 -101 -128 -130 -41 -20 -63 -23 -139 -22
-130 1 -196 36 -253 132 -30 52 -30 48 -33 579 -1 220 -4 272 -19 321 -50 165
-165 286 -328 344 -64 24 -84 26 -180 23 -118 -4 -173 -20 -266 -80 -98 -63
-184 -183 -217 -306 -8 -31 -12 -167 -14 -430 -2 -371 -2 -387 -23 -432 -27
-59 -74 -106 -132 -132 -35 -16 -65 -20 -135 -19 -130 1 -196 35 -253 132
l-27 46 -3 711 c-2 677 -2 711 15 711 32 -2 142 14 175 24 199 64 356 210 431
399 29 73 43 146 52 269 4 47 8 92 10 102 2 10 6 51 10 91 3 40 8 89 10 108 2
19 6 60 9 90 3 30 8 73 10 95 3 22 7 72 11 110 3 39 8 81 10 95 2 14 6 59 10
101 3 42 8 87 10 100 8 53 19 187 18 240 -1 66 -27 124 -75 164 -58 49 -83 54
-264 55 -93 0 -173 0 -179 -1 -5 -1 -14 -1 -18 0 -5 1 -5 -4 0 -11 4 -7 8 -49
8 -93 l0 -80 164 -5 c153 -5 165 -6 171 -25 4 -11 6 -22 5 -25 -2 -3 -6 -35
-9 -70 -3 -36 -8 -83 -11 -105 -2 -22 -7 -69 -10 -105 -3 -36 -8 -83 -10 -105
-6 -59 -25 -243 -31 -300 -2 -27 -6 -66 -9 -85 -2 -19 -7 -69 -11 -110 -3 -41
-8 -82 -9 -90 -2 -8 -6 -55 -9 -105 -10 -130 -14 -159 -32 -212 -49 -149 -191
-277 -344 -314 -58 -13 -326 -17 -393 -6 -76 14 -185 73 -246 134 -92 93 -134
196 -146 363 -2 41 -7 86 -9 100 -3 14 -7 57 -10 95 -3 39 -8 88 -10 110 -3
22 -10 92 -16 155 -6 63 -13 131 -15 150 -7 59 -14 132 -20 200 -4 36 -8 76
-10 90 -5 33 -19 189 -20 215 -1 42 10 45 176 45 l159 0 0 95 c0 92 -1 95 -22
96 -13 0 -43 1 -68 2 -25 1 -99 0 -165 -3z m2801 -240 c46 -20 79 -49 112
-100 9 -14 27 -40 40 -58 l25 -32 50 71 c60 85 112 126 175 135 169 25 303
-145 237 -301 -39 -90 -105 -163 -412 -448 l-51 -48 -64 58 c-163 149 -354
351 -383 403 -103 193 78 406 271 320z"/>
</g>
</svg>
